# Blender v2.93.5 OBJ File: 'scene.blend'
# www.blender.org
mtllib room.mtl
o Plane_Plane.001
v -20.436460 0.000000 25.331627
v 20.436460 0.000000 25.331627
v -20.436460 0.000000 -25.331627
v 20.436460 0.000000 -25.331627
v -20.436460 19.095783 25.331627
v 20.436460 19.095783 25.331627
v -20.436460 19.095783 -25.331627
v 20.436460 19.095783 -25.331627
v -20.436460 19.302584 -25.331627
v -20.436460 19.302584 25.331627
v 20.436460 19.302584 25.331627
v 20.436460 19.302584 -25.331627
vt 1.000000 0.000000
vt 0.000000 1.000000
vt 0.000000 0.000000
vt 1.000000 1.000000
vt 0.000000 1.000000
vt 1.000000 1.000000
vt 0.000000 0.000000
vt 1.000000 0.000000
vt 1.000000 1.000000
vt 1.000000 0.000000
vt 0.000000 1.000000
vt 0.000000 0.000000
vn 0.0000 1.0000 0.0000
vn 0.0000 0.0000 1.0000
vn -1.0000 0.0000 0.0000
vn 1.0000 0.0000 0.0000
vn 0.0000 -1.0000 0.0000
vn 0.0000 0.0000 -1.0000
usemtl None
s off
f 2/1/1 3/2/1 1/3/1
f 4/4/2 7/5/2 3/2/2
f 2/1/3 8/6/3 4/4/3
f 3/2/4 5/7/4 1/3/4
f 8/6/5 5/7/5 7/5/5
f 6/8/4 8/6/4 12/9/4 11/10/4
f 8/6/6 7/5/6 9/11/6 12/9/6
f 7/5/3 5/7/3 10/12/3 9/11/3
f 5/7/2 6/8/2 11/10/2 10/12/2
f 2/1/1 4/4/1 3/2/1
f 4/4/2 8/6/2 7/5/2
f 2/1/3 6/8/3 8/6/3
f 3/2/4 7/5/4 5/7/4
f 8/6/5 6/8/5 5/7/5
