# Blender v2.93.5 OBJ File: 'scene.blend'
# www.blender.org
mtllib table.mtl
o uploads_files_821916_Table
v -3.453958 3.199026 1.129874
v -3.142391 0.000173 1.075302
v -3.097446 3.199026 1.129874
v -3.088217 3.199026 1.120644
v -3.142391 0.000173 0.806347
v -3.088217 3.199026 0.761006
v -3.097446 3.199026 0.751776
v -3.409014 0.000173 0.806351
v -3.453958 3.199026 0.751776
v -3.463188 3.199026 0.761006
v -3.409014 0.000173 1.075302
v -3.463188 3.199026 1.120644
v 3.454085 3.199022 1.130177
v 3.142219 0.000001 1.075470
v 3.409181 0.000001 1.075470
v 3.087914 3.199022 1.120771
v 3.142219 0.000001 0.806179
v 3.097319 3.199022 0.751473
v 3.409181 0.000001 0.806179
v 3.463486 3.199022 0.760879
v 3.463486 3.199022 1.120771
v 3.097319 3.199022 1.130177
v 3.087914 3.199022 0.760879
v 3.454085 3.199022 0.751473
v -3.454097 3.199018 -2.574032
v -3.142199 0.000087 -2.519310
v -3.409202 0.000087 -2.519310
v -3.087877 3.199018 -2.564606
v -3.142199 0.000087 -2.249978
v -3.097303 3.199018 -2.195255
v -3.409202 0.000087 -2.249978
v -3.463527 3.199018 -2.204681
v -3.463527 3.199018 -2.564606
v -3.097303 3.199018 -2.574032
v -3.087877 3.199018 -2.204681
v -3.454097 3.199018 -2.195255
v 3.454097 3.199018 -2.574032
v 3.142199 0.000087 -2.519310
v 3.097303 3.199018 -2.574032
v 3.087877 3.199018 -2.564606
v 3.142199 0.000087 -2.249978
v 3.087877 3.199018 -2.204681
v 3.097303 3.199018 -2.195255
v 3.409202 0.000087 -2.249978
v 3.454097 3.199018 -2.195255
v 3.463527 3.199018 -2.204681
v 3.409202 0.000087 -2.519310
v 3.463527 3.199018 -2.564606
v -3.181462 3.201375 0.768041
v -3.181462 2.798966 -2.227671
v -3.181462 3.201376 -2.227671
v -3.201002 2.779426 0.768041
v -3.369758 2.779426 -2.227671
v -3.201002 2.779426 -2.227671
v -3.389297 2.798965 0.768041
v -3.389297 3.201376 -2.227671
v -3.389297 2.798966 -2.227671
v -3.181462 2.798965 0.768041
v -3.369758 2.779426 0.768041
v 3.181462 3.201375 0.768041
v 3.181462 2.798966 -2.227671
v 3.181462 2.798965 0.768041
v 3.201002 2.779426 0.768041
v 3.369758 2.779426 -2.227671
v 3.369758 2.779426 0.768041
v 3.389297 2.798965 0.768041
v 3.389297 3.201376 -2.227671
v 3.389297 3.201375 0.768041
v 3.201002 2.779426 -2.227671
v 3.389297 2.798966 -2.227671
v -3.116642 2.778640 1.032470
v 3.116642 2.778640 0.849184
v 3.116642 2.778640 1.032470
v -3.116642 2.791700 0.836119
v 3.116642 3.197552 0.836119
v 3.116642 2.791700 0.836119
v 3.116642 3.197552 1.045531
v -3.116642 2.791700 1.045531
v 3.116642 2.791700 1.045531
v -3.116642 2.778640 -2.476288
v 3.116642 2.778640 -2.293002
v -3.116642 2.778640 -2.293002
v -3.116642 2.791701 -2.279938
v 3.116642 3.197553 -2.279938
v -3.116642 3.197553 -2.279938
v 3.116642 3.197553 -2.489349
v -3.116642 2.791701 -2.489349
v -3.116642 3.197553 -2.489349
v 3.116642 2.791701 -2.489349
v -3.713774 3.363702 1.101837
v -3.660476 3.363702 1.263619
v -3.713774 3.363702 -2.545655
v 3.499038 3.353248 1.327182
v 3.498694 3.363702 1.316918
v -3.498694 3.363702 1.316918
v 3.724039 3.353249 -2.545999
v 3.713774 3.363702 -2.545655
v 3.713774 3.363702 1.101837
v -3.724039 3.353248 1.102181
v -3.499038 3.353249 -2.771001
v -3.498694 3.363702 -2.760736
v 3.498694 3.363702 -2.760736
v -3.499038 3.353248 1.327182
v -3.550290 3.363702 1.313475
v 3.724039 3.353248 1.102181
v 3.710332 3.363702 1.153433
v -3.724039 3.353249 -2.545999
v -3.710332 3.363702 -2.597251
v 3.499038 3.353249 -2.771001
v 3.550290 3.363702 -2.757294
v -3.720523 3.353248 1.154915
v -3.710332 3.363702 1.153433
v -3.701184 3.353248 1.219968
v -3.691877 3.363702 1.215638
v -3.667794 3.353252 1.270937
v -3.616825 3.353248 1.304328
v -3.612494 3.363702 1.295020
v -3.551767 3.353248 1.323667
v 3.551771 3.353248 1.323667
v 3.550290 3.363702 1.313475
v 3.616825 3.353248 1.304328
v 3.612494 3.363702 1.295020
v 3.667794 3.353252 1.270937
v 3.660136 3.363702 1.263280
v 3.701184 3.353248 1.219968
v 3.691877 3.363702 1.215638
v 3.720523 3.353248 1.154915
v -3.551767 3.353249 -2.767485
v -3.550290 3.363702 -2.757294
v -3.616825 3.353249 -2.748146
v -3.612494 3.363702 -2.738838
v -3.667794 3.353253 -2.714756
v -3.660476 3.363702 -2.707438
v -3.701184 3.353253 -2.663786
v -3.691877 3.363702 -2.659456
v -3.720523 3.353249 -2.598733
v 3.720523 3.353253 -2.598733
v 3.710332 3.363702 -2.597251
v 3.701184 3.353253 -2.663786
v 3.691877 3.363702 -2.659456
v 3.667794 3.353253 -2.714756
v 3.660476 3.363702 -2.707438
v 3.616825 3.353249 -2.748146
v 3.612494 3.363702 -2.738838
v 3.551767 3.353249 -2.767485
v -3.499038 3.194389 1.327182
v 3.499038 3.194389 1.327182
v 3.724039 3.194389 1.102181
v 3.724039 3.194389 -2.546000
v -3.724039 3.194389 -2.546000
v -3.724039 3.194389 1.102181
v 3.499038 3.194389 -2.771001
v -3.499038 3.194389 -2.771001
v -3.551771 3.194389 1.323667
v 3.720523 3.194389 1.154914
v -3.720523 3.194389 -2.598733
v 3.551767 3.194389 -2.767485
v -3.720523 3.194389 1.154914
v -3.701184 3.194389 1.219968
v -3.667794 3.194389 1.270937
v -3.616825 3.194389 1.304328
v 3.551771 3.194389 1.323667
v 3.616825 3.194389 1.304328
v 3.667794 3.194389 1.270937
v 3.701184 3.194389 1.219968
v -3.551767 3.194389 -2.767485
v -3.616825 3.194389 -2.748146
v -3.667794 3.194389 -2.714756
v -3.701184 3.194389 -2.663786
v 3.720523 3.194389 -2.598733
v 3.701184 3.194389 -2.663786
v 3.667794 3.194389 -2.714756
v 3.616825 3.194389 -2.748146
v -3.389297 3.201375 0.768041
v 3.181462 3.201376 -2.227671
v -3.116642 2.778640 0.849184
v -3.116642 3.197552 0.836119
v -3.116642 3.197552 1.045531
v 3.116642 2.778640 -2.476288
v 3.116642 2.791701 -2.279938
vt 0.865800 0.362500
vt 0.837900 0.648600
vt 0.833900 0.362500
vt 0.830400 0.363600
vt 0.802600 0.649800
vt 0.798200 0.363700
vt 0.795400 0.363600
vt 0.767600 0.649800
vt 0.763500 0.363600
vt 0.898700 0.362200
vt 0.870400 0.648300
vt 0.866500 0.362200
vt 0.861000 0.685400
vt 0.837100 0.685400
vt 0.861000 0.661400
vt 0.865300 0.362200
vt 0.826600 0.649800
vt 0.831500 0.363600
vt 0.797000 0.363700
vt 0.894500 0.648300
vt 0.899800 0.362200
vt 0.982200 0.990100
vt 0.949500 0.703800
vt 0.973500 0.703700
vt 0.940200 0.989800
vt 0.912300 0.703200
vt 0.935900 0.703200
vt 0.902600 0.991100
vt 0.879300 0.704300
vt 0.903200 0.704400
vt 0.865400 0.989600
vt 0.837400 0.703000
vt 0.863800 0.703000
vt 0.918700 0.661000
vt 0.943500 0.661000
vt 0.943500 0.686000
vt 0.836100 0.989600
vt 0.835900 0.989600
vt 0.950100 0.990500
vt 0.948900 0.990500
vt 0.903800 0.991000
vt 0.865100 0.989600
vt 0.940300 0.647500
vt 0.913500 0.372500
vt 0.936400 0.372500
vt 0.715800 0.640600
vt 0.692000 0.365300
vt 0.715100 0.365600
vt 0.987700 0.649200
vt 0.960900 0.374200
vt 0.983900 0.374200
vt 0.757400 0.643000
vt 0.732000 0.367800
vt 0.755200 0.368000
vt 0.744700 0.685100
vt 0.721800 0.685100
vt 0.721700 0.662000
vt 0.725300 0.642800
vt 0.726500 0.642900
vt 0.717000 0.640600
vt 0.988900 0.649200
vt 0.758600 0.643000
vt 0.689800 0.982000
vt 0.717700 0.696000
vt 0.719400 0.982000
vt 0.727200 0.988100
vt 0.755400 0.702200
vt 0.759400 0.988100
vt 0.765000 0.992100
vt 0.792900 0.706100
vt 0.794600 0.992100
vt 0.800500 0.993500
vt 0.828600 0.707500
vt 0.832700 0.993500
vt 0.803000 0.664800
vt 0.803000 0.688700
vt 0.779000 0.664800
vt 0.689800 0.982000
vt 0.691500 0.696000
vt 0.719400 0.982000
vt 0.766700 0.706100
vt 0.765000 0.992100
vt 0.794700 0.992100
vt 0.700500 0.349900
vt 0.967300 0.314000
vt 0.967300 0.349900
vt 0.700500 0.305400
vt 0.967300 0.290400
vt 0.967300 0.305400
vt 0.699500 0.284100
vt 0.966300 0.248200
vt 0.966300 0.284100
vt 0.700500 0.314000
vt 0.967300 0.311600
vt 0.699500 0.286500
vt 0.966300 0.286500
vt 0.720600 0.011600
vt 0.987400 0.047500
vt 0.720600 0.047500
vt 0.721600 0.062500
vt 0.988300 0.077500
vt 0.721600 0.077500
vt 0.719200 0.091400
vt 0.986000 0.127200
vt 0.719200 0.127200
vt 0.987400 0.049900
vt 0.720600 0.049900
vt 0.719200 0.088900
vt 0.986000 0.091400
vt 0.562700 0.201300
vt 0.007600 0.217700
vt 0.007600 0.201300
vt 0.564000 0.052600
vt 0.008900 0.088700
vt 0.008900 0.052600
vt 0.006600 0.139700
vt 0.561700 0.175900
vt 0.006600 0.175900
vt 0.561700 0.177500
vt 0.006600 0.177500
vt 0.008900 0.050900
vt 0.561100 0.198300
vt 0.006000 0.182000
vt 0.561100 0.182000
vt 0.563400 0.045500
vt 0.008300 0.009300
vt 0.563400 0.009300
vt 0.007500 0.133700
vt 0.562700 0.097600
vt 0.562700 0.133700
vt 0.007500 0.097600
vt 0.562700 0.095900
vt 0.008300 0.047100
vt 0.563400 0.047100
vt 0.016900 0.633100
vt 0.019900 0.618700
vt 0.016300 0.952600
vt 0.655000 0.607300
vt 0.655000 0.608600
vt 0.029200 0.608500
vt 0.944400 0.170200
vt 0.944400 0.171600
vt 0.617500 0.170900
vt 0.942000 0.211300
vt 0.942000 0.212600
vt 0.614900 0.212000
vt 0.652900 0.991400
vt 0.652900 0.992700
vt 0.027000 0.992500
vt 0.029200 0.607100
vt 0.024500 0.608400
vt 0.617500 0.169600
vt 0.612700 0.170900
vt 0.614900 0.210700
vt 0.610200 0.212000
vt 0.027100 0.991200
vt 0.022300 0.992500
vt 0.946700 0.211300
vt 0.946700 0.212600
vt 0.952700 0.211400
vt 0.952700 0.212700
vt 0.958100 0.211500
vt 0.957900 0.212800
vt 0.018500 0.607200
vt 0.018500 0.608500
vt 0.013300 0.608600
vt 0.024500 0.607100
vt 0.659600 0.607300
vt 0.659700 0.608600
vt 0.665600 0.607400
vt 0.665600 0.608600
vt 0.671000 0.607500
vt 0.670800 0.608800
vt 0.606800 0.169600
vt 0.606800 0.170900
vt 0.601600 0.171100
vt 0.612800 0.169600
vt 0.657600 0.991400
vt 0.657600 0.992700
vt 0.663600 0.991400
vt 0.663600 0.992700
vt 0.669000 0.991500
vt 0.668800 0.992800
vt 0.604200 0.210700
vt 0.604300 0.212000
vt 0.599000 0.212100
vt 0.610200 0.210700
vt 0.949100 0.170200
vt 0.949100 0.171600
vt 0.955100 0.170300
vt 0.955100 0.171600
vt 0.960500 0.170400
vt 0.960300 0.171700
vt 0.016400 0.991200
vt 0.016400 0.992500
vt 0.011200 0.992700
vt 0.022400 0.991200
vt 0.029200 0.592900
vt 0.655000 0.593100
vt 0.617500 0.155400
vt 0.944500 0.156000
vt 0.614900 0.196400
vt 0.942100 0.197000
vt 0.027000 0.977000
vt 0.652900 0.977200
vt 0.024400 0.592900
vt 0.612700 0.155400
vt 0.610200 0.196400
vt 0.022300 0.977000
vt 0.946800 0.197100
vt 0.952900 0.197100
vt 0.958400 0.197200
vt 0.012900 0.593100
vt 0.018400 0.593000
vt 0.659700 0.593100
vt 0.665800 0.593200
vt 0.671300 0.593200
vt 0.601200 0.155500
vt 0.606600 0.155400
vt 0.657700 0.977200
vt 0.663800 0.977200
vt 0.669200 0.977300
vt 0.598600 0.196500
vt 0.604100 0.196500
vt 0.949200 0.156000
vt 0.955300 0.156100
vt 0.960800 0.156200
vt 0.010800 0.977100
vt 0.016200 0.977000
vt 0.030500 0.588300
vt 0.030500 0.222600
vt 0.655000 0.588300
vt 0.646200 0.614300
vt 0.650400 0.614600
vt 0.646000 0.971500
vt 0.662300 0.952700
vt 0.661900 0.962800
vt 0.659300 0.967100
vt 0.659700 0.618800
vt 0.662400 0.623100
vt 0.663000 0.633200
vt 0.655000 0.222600
vt 0.659700 0.222900
vt 0.675000 0.568200
vt 0.673000 0.578700
vt 0.670000 0.583300
vt 0.670000 0.227600
vt 0.673000 0.232200
vt 0.675000 0.242700
vt 0.033300 0.614300
vt 0.033100 0.971600
vt 0.029000 0.614600
vt 0.028900 0.971200
vt 0.023800 0.616200
vt 0.023600 0.969600
vt 0.019600 0.967000
vt 0.017400 0.623000
vt 0.016900 0.962700
vt 0.025800 0.588000
vt 0.015500 0.583300
vt 0.012500 0.578700
vt 0.010400 0.568200
vt 0.010400 0.242700
vt 0.012500 0.232200
vt 0.015500 0.227600
vt 0.650300 0.971200
vt 0.655700 0.616200
vt 0.655500 0.969600
vt 0.659700 0.588000
vt 0.665500 0.224600
vt 0.665500 0.586300
vt 0.025800 0.222900
vt 0.020000 0.586300
vt 0.020000 0.224600
vt 0.861700 0.648600
vt 0.791400 0.649800
vt 0.837200 0.661400
vt 0.907900 0.989800
vt 0.870600 0.990700
vt 0.918700 0.686000
vt 0.909600 0.647500
vt 0.684900 0.640300
vt 0.957100 0.649200
vt 0.744700 0.662000
vt 0.731300 0.702200
vt 0.804600 0.707500
vt 0.779000 0.688700
vt 0.700500 0.290400
vt 0.699500 0.248200
vt 0.700500 0.311600
vt 0.987400 0.011600
vt 0.988300 0.062500
vt 0.986000 0.088900
vt 0.562700 0.217700
vt 0.564000 0.088700
vt 0.561700 0.139700
vt 0.564000 0.050900
vt 0.006000 0.198300
vt 0.008300 0.045500
vt 0.007500 0.095900
vt 0.013100 0.607300
vt 0.601300 0.169700
vt 0.598800 0.210800
vt 0.011000 0.991300
vt 0.662400 0.957200
vt 0.663000 0.628700
vt 0.674700 0.572900
vt 0.674700 0.238000
vt 0.016900 0.628600
vt 0.016300 0.957100
vt 0.010700 0.572900
vt 0.010800 0.238000
vn 0.0000 -0.0171 0.9999
vn 0.9231 -0.0211 0.3841
vn 0.9999 -0.0170 -0.0018
vn 0.9231 -0.0211 -0.3841
vn -0.0000 -0.0171 -0.9999
vn -0.9231 -0.0211 -0.3841
vn -0.9999 -0.0170 0.0018
vn -0.9231 -0.0211 0.3841
vn -0.0000 -1.0000 -0.0000
vn -0.7069 -0.0220 0.7069
vn 0.9999 -0.0170 0.0018
vn 0.7070 -0.0220 0.7069
vn 0.7069 -0.0220 -0.7069
vn -0.9999 -0.0170 -0.0018
vn -0.7069 -0.0220 -0.7069
vn -0.0018 -0.0171 0.9999
vn -0.9999 -0.0170 0.0000
vn -0.3840 -0.0212 -0.9231
vn -0.0018 -0.0171 -0.9999
vn 0.9231 -0.0211 -0.3840
vn 0.7071 -0.0220 0.7068
vn 0.9231 -0.0211 0.3840
vn -0.3840 -0.0212 0.9231
vn 0.7071 -0.0220 -0.7068
vn 0.9999 -0.0170 0.0000
vn 0.9999 -0.0170 -0.0019
vn 0.3840 -0.0212 0.9231
vn 0.0019 -0.0171 0.9999
vn -0.9230 -0.0211 0.3842
vn -0.9999 -0.0170 -0.0019
vn -0.9999 -0.0170 0.0019
vn -0.7068 -0.0220 -0.7071
vn -0.9230 -0.0211 -0.3842
vn 0.7069 -0.0220 0.7069
vn -0.7068 -0.0220 0.7071
vn 0.3839 -0.0212 -0.9231
vn -0.0019 -0.0171 -0.9999
vn 0.3839 -0.0212 0.9231
vn 0.7068 -0.0220 -0.7071
vn 0.0019 -0.0171 -0.9999
vn -0.0019 -0.0171 0.9999
vn 0.7068 -0.0220 0.7071
vn 1.0000 0.0000 0.0000
vn 0.9239 -0.3827 -0.0000
vn -0.9239 -0.3827 0.0000
vn -1.0000 0.0000 0.0000
vn 0.7071 -0.7071 -0.0000
vn -0.7071 -0.7071 -0.0000
vn 0.0000 -0.3828 -0.9238
vn 0.0000 0.0000 -1.0000
vn 0.0000 -0.3827 -0.9239
vn 0.0000 0.0000 1.0000
vn 0.0000 -0.3827 0.9239
vn 0.0000 -0.7071 0.7071
vn 0.0000 -0.7072 -0.7070
vn 0.0000 -0.3828 0.9238
vn 0.0000 -0.7071 -0.7071
vn 0.0000 -0.7072 0.7070
vn -0.0000 1.0000 0.0000
vn 0.0308 0.3758 0.9262
vn 0.0237 0.7009 0.7129
vn -0.0238 0.7008 0.7129
vn 0.9262 0.3758 -0.0308
vn 0.7129 0.7009 -0.0237
vn 0.7129 0.7009 0.0238
vn -0.9262 0.3758 0.0308
vn -0.7129 0.7008 0.0237
vn -0.7129 0.7009 -0.0238
vn -0.0308 0.3758 -0.9262
vn -0.0237 0.7008 -0.7129
vn 0.0238 0.7008 -0.7129
vn -0.0308 0.3758 0.9262
vn -0.1271 0.7016 0.7012
vn 0.9262 0.3758 0.0308
vn 0.7012 0.7016 0.1271
vn -0.9262 0.3758 -0.0308
vn -0.7012 0.7016 -0.1271
vn 0.0309 0.3758 -0.9262
vn 0.1271 0.7016 -0.7012
vn -0.9145 0.3700 0.1637
vn -0.7012 0.7015 0.1273
vn -0.8439 0.3668 0.3915
vn -0.6474 0.7006 0.3001
vn -0.6586 0.3642 0.6585
vn -0.5024 0.7038 0.5022
vn -0.3915 0.3667 0.8439
vn -0.3000 0.7008 0.6472
vn -0.1636 0.3700 0.9145
vn 0.1637 0.3700 0.9145
vn 0.1273 0.7015 0.7012
vn 0.3915 0.3668 0.8439
vn 0.2999 0.7019 0.6461
vn 0.6568 0.3730 0.6553
vn 0.4937 0.7185 0.4900
vn 0.8431 0.3675 0.3925
vn 0.6459 0.7007 0.3029
vn 0.9145 0.3700 0.1636
vn -0.1637 0.3700 -0.9145
vn -0.1273 0.7015 -0.7012
vn -0.3915 0.3668 -0.8439
vn -0.3001 0.7006 -0.6474
vn -0.6585 0.3642 -0.6586
vn -0.5022 0.7038 -0.5024
vn -0.8439 0.3668 -0.3915
vn -0.6471 0.7009 -0.3000
vn -0.5022 0.7038 -0.5025
vn -0.9145 0.3700 -0.1636
vn 0.9145 0.3701 -0.1637
vn 0.7011 0.7016 -0.1272
vn 0.8439 0.3669 -0.3915
vn 0.6473 0.7007 -0.3000
vn 0.6586 0.3642 -0.6585
vn 0.5024 0.7038 -0.5022
vn 0.3915 0.3667 -0.8439
vn 0.3000 0.7008 -0.6472
vn 0.1636 0.3700 -0.9145
vn -0.0333 0.0000 0.9994
vn 0.0333 0.0000 0.9994
vn 0.9994 0.0000 0.0333
vn 0.9994 -0.0000 -0.0333
vn -0.9994 0.0000 -0.0333
vn -0.9994 -0.0000 0.0333
vn 0.0333 0.0000 -0.9994
vn -0.0333 0.0000 -0.9994
vn -0.1768 0.0000 0.9842
vn 0.9842 -0.0000 0.1768
vn -0.9842 0.0000 -0.1768
vn 0.1768 0.0000 -0.9842
vn -0.9842 0.0000 0.1768
vn -0.9071 -0.0000 0.4209
vn -0.7071 0.0000 0.7071
vn -0.4209 0.0000 0.9071
vn 0.1768 0.0000 0.9842
vn 0.4209 -0.0000 0.9071
vn 0.7071 0.0000 0.7071
vn 0.9071 -0.0000 0.4209
vn -0.1768 0.0000 -0.9842
vn -0.4209 0.0000 -0.9071
vn -0.7071 0.0000 -0.7071
vn -0.9071 0.0000 -0.4209
vn 0.9842 0.0000 -0.1768
vn 0.9071 0.0000 -0.4209
vn 0.7071 0.0000 -0.7071
vn 0.4209 0.0000 -0.9071
vn 0.0000 -0.3828 0.9239
usemtl table
s 1
f 1/1/1 2/2/1 3/3/1
f 4/4/2 5/5/3 6/6/4
f 7/7/5 8/8/5 9/9/5
f 10/10/6 11/11/7 12/12/8
f 8/13/9 5/14/9 11/15/9
f 1/16/10 12/12/8 11/11/7
f 2/17/11 4/4/2 3/18/12
f 5/5/3 7/19/13 6/6/4
f 8/20/14 10/10/6 9/21/15
f 13/22/1 14/23/16 15/24/1
f 16/25/17 17/26/17 14/27/17
f 18/28/18 19/29/5 17/30/19
f 20/31/20 15/32/11 19/33/3
f 15/34/9 14/35/9 17/36/9
f 13/37/21 15/32/11 21/38/22
f 22/39/23 16/40/10 14/23/16
f 23/41/15 18/28/18 17/30/19
f 24/42/24 20/31/20 19/33/3
f 25/43/5 26/44/5 27/45/5
f 28/46/4 29/47/25 26/48/26
f 30/49/27 31/50/1 29/51/28
f 32/52/29 27/53/30 31/54/31
f 27/55/9 26/56/9 29/57/9
f 25/58/32 27/53/30 33/59/33
f 34/60/13 28/46/4 26/48/26
f 35/61/34 30/49/27 29/51/28
f 36/62/35 32/52/29 31/54/31
f 37/63/36 38/64/37 39/65/18
f 40/66/17 41/67/17 42/68/17
f 43/69/23 44/70/28 45/71/38
f 46/72/25 47/73/25 48/74/25
f 44/75/9 41/76/9 47/77/9
f 37/63/36 48/78/39 47/79/40
f 38/64/37 40/80/15 39/65/18
f 41/81/41 43/69/23 42/82/10
f 44/70/28 46/83/42 45/71/38
f 49/84/43 50/85/44 51/86/43
f 52/87/9 53/88/9 54/89/9
f 55/90/45 56/91/46 57/92/45
f 58/93/44 54/94/47 50/85/44
f 59/95/48 57/92/45 53/96/48
f 60/97/46 61/98/45 62/99/45
f 63/100/9 64/101/9 65/102/9
f 66/103/44 67/104/43 68/105/43
f 62/99/45 69/106/48 63/107/48
f 65/108/47 70/109/44 66/103/44
f 71/110/9 72/111/9 73/112/9
f 74/113/49 75/114/50 76/115/51
f 77/116/52 78/117/53 79/118/53
f 79/118/53 71/119/54 73/120/54
f 72/121/55 74/113/49 76/115/51
f 80/122/9 81/123/9 82/124/9
f 83/125/56 84/126/52 85/127/52
f 86/128/50 87/129/51 88/130/50
f 89/131/51 80/132/57 87/129/51
f 81/133/58 83/125/56 82/134/58
f 90/135/59 91/136/59 92/137/59
f 93/138/60 94/139/61 95/140/62
f 96/141/63 97/142/64 98/143/65
f 99/144/66 90/145/67 92/146/68
f 100/147/69 101/148/70 102/149/71
f 103/150/72 95/140/62 104/151/73
f 105/152/74 98/143/65 106/153/75
f 107/154/76 92/146/68 108/155/77
f 109/156/78 102/149/71 110/157/79
f 111/158/80 112/159/81 90/145/67
f 113/160/82 114/161/83 112/159/81
f 115/162/84 91/163/85 114/161/83
f 116/164/86 117/165/87 91/166/85
f 118/167/88 104/151/73 117/165/87
f 119/168/89 120/169/90 94/139/61
f 121/170/91 122/171/92 120/169/90
f 123/172/93 124/173/94 122/171/92
f 125/174/95 126/175/96 124/176/94
f 127/177/97 106/153/75 126/175/96
f 128/178/98 129/179/99 101/148/70
f 130/180/100 131/181/101 129/179/99
f 132/182/102 133/183/103 131/181/101
f 134/184/104 135/185/105 133/186/106
f 136/187/107 108/155/77 135/185/105
f 137/188/108 138/189/109 97/142/64
f 139/190/110 140/191/111 138/189/109
f 141/192/112 142/193/113 140/191/111
f 143/194/114 144/195/115 142/196/113
f 145/197/116 110/157/79 144/195/115
f 93/138/60 146/198/117 147/199/118
f 96/141/63 148/200/119 149/201/120
f 99/144/66 150/202/121 151/203/122
f 100/147/69 152/204/123 153/205/124
f 103/150/72 154/206/125 146/198/117
f 105/152/74 155/207/126 148/200/119
f 107/154/76 156/208/127 150/202/121
f 109/156/78 157/209/128 152/204/123
f 111/158/80 151/203/122 158/210/129
f 113/160/82 158/210/129 159/211/130
f 115/162/84 159/211/130 160/212/131
f 116/164/86 160/213/131 161/214/132
f 118/167/88 161/214/132 154/206/125
f 119/168/89 147/199/118 162/215/133
f 121/170/91 162/215/133 163/216/134
f 123/172/93 163/216/134 164/217/135
f 125/174/95 164/218/135 165/219/136
f 127/177/97 165/219/136 155/207/126
f 128/178/98 153/205/124 166/220/137
f 130/180/100 166/220/137 167/221/138
f 132/182/102 167/221/138 168/222/139
f 134/184/104 168/223/139 169/224/140
f 136/187/107 169/224/140 156/208/127
f 137/188/108 149/201/120 170/225/141
f 139/190/110 170/225/141 171/226/142
f 141/192/112 171/226/142 172/227/143
f 143/194/114 172/228/143 173/229/144
f 145/197/116 173/229/144 157/209/128
f 146/230/9 153/231/9 147/232/9
f 94/233/59 120/234/59 102/235/59
f 97/236/59 140/237/59 142/238/59
f 124/239/59 126/240/59 98/241/59
f 152/242/9 157/243/9 147/232/9
f 148/244/9 165/245/9 164/246/9
f 172/247/9 171/248/9 149/249/9
f 95/250/59 94/233/59 101/251/59
f 104/252/59 95/250/59 129/253/59
f 117/254/59 104/252/59 131/255/59
f 91/136/59 117/254/59 133/256/59
f 90/135/59 114/257/59 91/136/59
f 133/256/59 135/258/59 92/137/59
f 146/230/9 154/259/9 153/231/9
f 160/260/9 159/261/9 151/262/9
f 150/263/9 169/264/9 168/265/9
f 120/234/59 110/266/59 102/235/59
f 122/267/59 144/268/59 110/266/59
f 124/239/59 142/238/59 144/268/59
f 98/241/59 97/236/59 142/238/59
f 157/243/9 162/269/9 147/232/9
f 173/270/9 163/271/9 162/269/9
f 172/247/9 164/246/9 163/271/9
f 149/249/9 148/244/9 164/246/9
f 154/259/9 166/272/9 153/231/9
f 161/273/9 167/274/9 166/272/9
f 160/260/9 168/265/9 167/274/9
f 151/262/9 150/263/9 168/265/9
f 1/1/1 11/275/1 2/2/1
f 4/4/2 2/17/11 5/5/3
f 7/7/5 5/276/5 8/8/5
f 10/10/6 8/20/14 11/11/7
f 5/14/9 2/277/9 11/15/9
f 13/22/1 22/39/23 14/23/16
f 16/25/17 23/278/17 17/26/17
f 18/28/18 24/279/5 19/29/5
f 20/31/20 21/38/22 15/32/11
f 17/36/9 19/280/9 15/34/9
f 25/43/5 34/281/5 26/44/5
f 28/46/4 35/282/25 29/47/25
f 30/49/27 36/283/1 31/50/1
f 32/52/29 33/59/33 27/53/30
f 29/57/9 31/284/9 27/55/9
f 37/63/36 47/79/40 38/64/37
f 40/66/17 38/285/17 41/67/17
f 43/69/23 41/81/41 44/70/28
f 46/72/25 44/286/25 47/73/25
f 41/76/9 38/287/9 47/77/9
f 49/84/43 58/93/44 50/85/44
f 52/87/9 59/288/9 53/88/9
f 55/90/45 174/289/46 56/91/46
f 58/93/44 52/290/47 54/94/47
f 59/95/48 55/90/45 57/92/45
f 60/97/46 175/291/46 61/98/45
f 63/100/9 69/292/9 64/101/9
f 66/103/44 70/109/44 67/104/43
f 62/99/45 61/98/45 69/106/48
f 65/108/47 64/293/47 70/109/44
f 71/110/9 176/294/9 72/111/9
f 74/113/49 177/295/50 75/114/50
f 77/116/52 178/296/52 78/117/53
f 79/118/53 78/117/53 71/119/54
f 72/121/55 176/297/55 74/113/49
f 80/122/9 179/298/9 81/123/9
f 83/125/56 180/299/145 84/126/52
f 86/128/50 89/131/51 87/129/51
f 89/131/51 179/300/57 80/132/57
f 81/133/58 180/299/145 83/125/56
f 91/136/59 133/256/59 92/137/59
f 95/140/62 103/150/72 93/138/60
f 98/143/65 105/152/74 96/141/63
f 92/146/68 107/154/76 99/144/66
f 102/149/71 109/156/78 100/147/69
f 104/151/73 118/167/88 103/150/72
f 106/153/75 127/177/97 105/152/74
f 108/155/77 136/187/107 107/154/76
f 110/157/79 145/197/116 109/156/78
f 90/145/67 99/144/66 111/158/80
f 112/159/81 111/158/80 113/160/82
f 114/161/83 113/160/82 115/162/84
f 91/166/85 115/301/84 116/164/86
f 117/165/87 116/164/86 118/167/88
f 94/139/61 93/138/60 119/168/89
f 120/169/90 119/168/89 121/170/91
f 122/171/92 121/170/91 123/172/93
f 124/176/94 123/302/93 125/174/95
f 126/175/96 125/174/95 127/177/97
f 101/148/70 100/147/69 128/178/98
f 129/179/99 128/178/98 130/180/100
f 131/181/101 130/180/100 132/182/102
f 133/186/106 132/303/102 134/184/104
f 135/185/105 134/184/104 136/187/107
f 97/142/64 96/141/63 137/188/108
f 138/189/109 137/188/108 139/190/110
f 140/191/111 139/190/110 141/192/112
f 142/196/113 141/304/112 143/194/114
f 144/195/115 143/194/114 145/197/116
f 93/138/60 103/150/72 146/198/117
f 96/141/63 105/152/74 148/200/119
f 99/144/66 107/154/76 150/202/121
f 100/147/69 109/156/78 152/204/123
f 103/150/72 118/167/88 154/206/125
f 105/152/74 127/177/97 155/207/126
f 107/154/76 136/187/107 156/208/127
f 109/156/78 145/197/116 157/209/128
f 111/158/80 99/144/66 151/203/122
f 113/160/82 111/158/80 158/210/129
f 115/162/84 113/160/82 159/211/130
f 116/164/86 115/301/84 160/213/131
f 118/167/88 116/164/86 161/214/132
f 119/168/89 93/138/60 147/199/118
f 121/170/91 119/168/89 162/215/133
f 123/172/93 121/170/91 163/216/134
f 125/174/95 123/302/93 164/218/135
f 127/177/97 125/174/95 165/219/136
f 128/178/98 100/147/69 153/205/124
f 130/180/100 128/178/98 166/220/137
f 132/182/102 130/180/100 167/221/138
f 134/184/104 132/303/102 168/223/139
f 136/187/107 134/184/104 169/224/140
f 137/188/108 96/141/63 149/201/120
f 139/190/110 137/188/108 170/225/141
f 141/192/112 139/190/110 171/226/142
f 143/194/114 141/304/112 172/228/143
f 145/197/116 143/194/114 173/229/144
f 153/231/9 152/242/9 147/232/9
f 97/236/59 138/305/59 140/237/59
f 126/240/59 106/306/59 98/241/59
f 148/244/9 155/307/9 165/245/9
f 171/248/9 170/308/9 149/249/9
f 94/233/59 102/235/59 101/251/59
f 95/250/59 101/251/59 129/253/59
f 104/252/59 129/253/59 131/255/59
f 117/254/59 131/255/59 133/256/59
f 90/135/59 112/309/59 114/257/59
f 135/258/59 108/310/59 92/137/59
f 159/261/9 158/311/9 151/262/9
f 150/263/9 156/312/9 169/264/9
f 120/234/59 122/267/59 110/266/59
f 122/267/59 124/239/59 144/268/59
f 124/239/59 98/241/59 142/238/59
f 157/243/9 173/270/9 162/269/9
f 173/270/9 172/247/9 163/271/9
f 172/247/9 149/249/9 164/246/9
f 154/259/9 161/273/9 166/272/9
f 161/273/9 160/260/9 167/274/9
f 160/260/9 151/262/9 168/265/9
